HIERARCHY
ROOT Hips
{
	OFFSET 0.00000 0.00000 0.00000
	CHANNELS 6 Xposition Yposition Zposition Zrotation Yrotation Xrotation 
	JOINT LHipJoint
	{
		OFFSET 0 0 0
		CHANNELS 3 Zrotation Yrotation Xrotation
		JOINT LeftHip
		{
			OFFSET 1.84395 -1.68683 0.74144
			CHANNELS 3 Zrotation Yrotation Xrotation
			JOINT LeftKnee
			{
				OFFSET 2.27037 -6.23779 0.00000
				CHANNELS 3 Zrotation Yrotation Xrotation
				JOINT LeftAnkle
				{
					OFFSET 2.56918 -7.05877 0.00000
					CHANNELS 3 Zrotation Yrotation Xrotation
					JOINT LeftToe
					{
						OFFSET 0.22276 -0.61202 1.71784
						CHANNELS 3 Zrotation Yrotation Xrotation
						End Site
						{
							OFFSET 0.00000 -0.00000 0.91613
						}
					}
				}
			}
		}
	}
	JOINT RHipJoint
	{
		OFFSET 0 0 0
		CHANNELS 3 Zrotation Yrotation Xrotation
		JOINT RightHip
		{
			OFFSET -1.76833 -1.68684 0.74144
			CHANNELS 3 Zrotation Yrotation Xrotation
			JOINT RightKnee
			{
				OFFSET -2.49360 -6.85110 0.00000
				CHANNELS 3 Zrotation Yrotation Xrotation
				JOINT RightAnkle
				{
					OFFSET -2.55538 -7.02085 0.00000
					CHANNELS 3 Zrotation Yrotation Xrotation
					JOINT RightToe
					{
						OFFSET -0.21516 -0.59115 1.68050
						CHANNELS 3 Zrotation Yrotation Xrotation
						End Site
						{
							OFFSET -0.00000 -0.00000 0.89604
						}
					}
				}
			}
		}
	}
	JOINT lowerback
	{
		OFFSET 0 0 0
		CHANNELS 3 Zrotation Yrotation Xrotation
		JOINT Chest
		{
			OFFSET 0.06382 1.72312 -0.19613
			CHANNELS 3 Zrotation Yrotation Xrotation
			JOINT Chest2
			{
				OFFSET -0.00055 1.73507 0.23859
				CHANNELS 3 Zrotation Yrotation Xrotation
				JOINT lowerneck
				{
					OFFSET 0 0 0
					CHANNELS 3 Zrotation Yrotation Xrotation
					JOINT Neck
					{
						OFFSET 0.03638 1.65562 0.09633
						CHANNELS 3 Zrotation Yrotation Xrotation
						JOINT Head
						{
							OFFSET 0.06388 1.62807 -0.32386
							CHANNELS 3 Zrotation Yrotation Xrotation
							End Site
							{
								OFFSET 0.00995 1.67644 -0.12021
							}
						}
					}
				}
				JOINT LeftCollar
				{
					OFFSET 0 0 0
					CHANNELS 3 Zrotation Yrotation Xrotation
					JOINT LeftShoulder
					{
						OFFSET 3.09648 1.42991 0.28122
CHANNELS 3 Zrotation Xrotation Yrotation
						JOINT LeftElbow
						{
OFFSET 0 -5.118780 -0.000000
CHANNELS 3 Zrotation Xrotation Yrotation
							JOINT LeftWrist
							{
OFFSET 0 -3.599710 0.000000
CHANNELS 3 Zrotation Xrotation Yrotation
								JOINT lhand
								{
									OFFSET 0 0 0
CHANNELS 3 Zrotation Xrotation Yrotation
									JOINT LFingers
									{
OFFSET 0 -0.628770 0.000000
CHANNELS 3 Zrotation Xrotation Yrotation
										End Site
										{
OFFSET 0 -0.506930 0.000000
										}
									}
								}
								JOINT LThumb
								{
OFFSET 0 0.000000 0.000000
CHANNELS 3 Zrotation Xrotation Yrotation
									End Site
									{
OFFSET 0 -0.514670 0.514670
									}
								}
							}
						}
					}
				}
				JOINT RightCollar
				{
					OFFSET 0 0 0
					CHANNELS 3 Zrotation Yrotation Xrotation
					JOINT RightShoulder
					{
						OFFSET -3.33565 1.14597 0.05047
CHANNELS 3 Zrotation Xrotation Yrotation
						JOINT RightElbow
						{
OFFSET 0 -5.490200 0.000000
CHANNELS 3 Zrotation Xrotation Yrotation
							JOINT RightWrist
							{
OFFSET 0 -3.206590 -0.000000
CHANNELS 3 Zrotation Xrotation Yrotation
								JOINT rhand
								{
									OFFSET 0 0 0
CHANNELS 3 Zrotation Xrotation Yrotation
									JOINT RFingers
									{
OFFSET 0 -0.691880 0.000000
CHANNELS 3 Zrotation Xrotation Yrotation
										End Site
										{
OFFSET 0 -0.557810 0.000000
										}
									}
								}
								JOINT RThumb
								{
OFFSET 0 0.000000 0.000000
CHANNELS 3 Zrotation Xrotation Yrotation
									End Site
									{
OFFSET 0 -0.566330 0.566330
									}
								}
							}
						}
					}
				}
			}
		}
	}
}
MOTION
Frames: 4
Frame Time: 0.008333333333333333
0.189700 17.483800 8.494500 -10.367900 0.012800 10.743000 0.000000 0.000000 0.000000 -16.778700 -42.833500 23.660800 0.083900 -1.868200 -5.141700 -5.629400 45.331600 -47.558000 1.029500 6.454000 18.107500 0.000000 0.000000 0.000000 29.529700 29.415500 9.136400 -0.000700 0.176300 -0.484500 1.980800 -27.909900 -26.343200 -0.147500 -2.475300 6.821100 7.115300 1.382700 -2.951400 0.306800 2.116300 -11.364100 -3.755900 0.406900 -10.269000 -13.204900 -16.106600 -2.444900 12.036200 -27.932700 36.847400 2.427000 -12.573000 18.059600 -0.000000 0.000000 0.000000 0.475900 13.363100 18.868500 12.952700 -21.217900 2.436100 15.667300 20.026600 11.457900 0.000000 0.000000 0.000000 -7.125000 0.000000 0.000000 -8.037700 18.159700 -5.183600 -0.000000 0.000000 0.000000 6.914900 10.067700 -28.511200 -13.603600 -22.165200 -2.676700 10.972100 37.507600 33.700700 0.000000 0.000000 0.000000 7.125000 0.000000 -0.000000 47.261900 57.160000 -16.543900
0.185787 17.485226 8.490591 -10.377817 0.007781 10.667188 0.000000 0.000000 0.000000 -16.691235 -42.703859 23.590751 0.083913 -1.868479 -5.142168 -5.870778 45.455316 -47.018177 0.981372 6.305865 17.674582 0.000000 0.000000 0.000000 29.697748 29.720594 9.416169 -0.000813 0.180260 -0.495254 2.026768 -28.170349 -26.557471 -0.168174 -2.641389 7.282016 6.781848 0.653900 -2.701043 1.551717 1.208590 -10.772045 -2.188624 0.084108 -9.865498 -13.088202 -15.829152 -1.480024 11.798752 -25.692394 30.081971 2.948962 -11.981523 13.864979 0.000000 0.000000 0.000000 -2.037032 12.229127 21.413907 13.122225 -21.466089 2.497890 15.767499 20.195460 11.183748 0.000000 0.000000 0.000000 -7.125000 0.000000 0.000000 -7.969728 18.433991 -5.090120 0.000000 0.000000 0.000000 4.493761 8.791368 -26.183448 -13.415551 -21.892935 -2.606211 11.466900 37.581480 33.849239 0.000000 0.000000 0.000000 7.125000 0.000000 0.000000 47.853680 57.158907 -16.821905
0.173025 17.497880 8.514336 -9.958568 0.048211 11.117831 0.000000 0.000000 0.000000 -17.106101 -43.445596 23.506486 0.082408 -1.851811 -5.096283 -5.952006 45.846594 -47.680381 0.979837 6.300973 17.660180 0.000000 0.000000 0.000000 28.077249 27.325579 6.726553 -0.000687 -0.167375 0.459895 1.608469 -25.731392 -24.702377 -0.162692 -2.597257 7.159455 5.565369 -0.512387 -3.294376 3.296343 -0.364512 -10.064175 0.408307 -0.467388 -8.809027 -13.869950 -15.174049 -1.040138 11.275690 -23.110593 23.138099 3.463935 -11.173416 10.554249 0.000000 0.000000 0.000000 -5.582322 10.556401 24.586252 13.527293 -22.054950 2.648052 15.856717 20.071812 9.252740 0.000000 0.000000 0.000000 -7.125000 0.000000 0.000000 -7.934706 20.410441 -4.714285 0.000000 0.000000 0.000000 1.016452 6.543683 -23.335776 -12.673687 -20.807158 -2.336074 11.079794 38.466266 33.970383 0.000000 0.000000 0.000000 7.125000 0.000000 0.000000 47.640421 57.329913 -16.929104
0.169691 17.502000 8.519751 -9.821576 0.062736 11.246821 0.000000 0.000000 0.000000 -17.175566 -43.592157 23.403535 0.082679 -1.854831 -5.104665 -5.937917 45.876996 -47.800915 0.996163 6.351878 17.808884 0.000000 0.000000 0.000000 27.879012 27.428780 6.596384 -0.000770 -0.182011 0.500097 1.622377 -25.822221 -24.776874 -0.189121 -2.800407 7.723608 5.398124 -0.513624 -3.571188 3.296015 -0.395650 -9.999413 0.494959 -0.465317 -8.570579 -14.068438 -15.239916 -1.196688 11.238685 -23.180600 23.261897 3.447137 -11.211173 10.661118 0.000000 0.000000 0.000000 -5.570156 10.455236 24.209920 13.573602 -22.121827 2.665392 16.039270 19.829358 8.583933 0.000000 0.000000 0.000000 -7.125000 0.000000 0.000000 -7.818242 21.088502 -4.523105 0.000000 0.000000 0.000000 0.907088 6.345271 -23.525424 -12.581797 -20.671433 -2.303567 11.028418 38.744761 33.902833 0.000000 0.000000 0.000000 7.125000 0.000000 0.000000 47.523530 57.292773 -16.828284
